<mxfile host="65bd71144e">
    <diagram id="8vRUOhVzkUuXQYdR1t1x" name="Page-1">
        <mxGraphModel dx="1374" dy="932" grid="1" gridSize="10" guides="1" tooltips="1" connect="1" arrows="1" fold="1" page="1" pageScale="1" pageWidth="1169" pageHeight="827" math="0" shadow="0">
            <root>
                <mxCell id="0"/>
                <mxCell id="1" parent="0"/>
                <mxCell id="3" style="edgeStyle=none;html=1;" edge="1" parent="1" source="2">
                    <mxGeometry relative="1" as="geometry">
                        <mxPoint x="280" y="120" as="targetPoint"/>
                    </mxGeometry>
                </mxCell>
                <mxCell id="2" value="" style="shape=waypoint;sketch=0;size=6;pointerEvents=1;points=[];fillColor=none;resizable=0;rotatable=0;perimeter=centerPerimeter;snapToPoint=1;strokeWidth=12;" vertex="1" parent="1">
                    <mxGeometry x="270" y="30" width="20" height="20" as="geometry"/>
                </mxCell>
                <mxCell id="10" style="edgeStyle=none;html=1;exitX=0.5;exitY=1;exitDx=0;exitDy=0;entryX=0.5;entryY=0;entryDx=0;entryDy=0;fontFamily=JetBrains Mono;fontSize=14;" edge="1" parent="1" source="6" target="9">
                    <mxGeometry relative="1" as="geometry"/>
                </mxCell>
                <mxCell id="6" value="Отображение окна входа в учётную запись" style="rounded=1;whiteSpace=wrap;html=1;strokeWidth=1;fontSize=14;arcSize=22;fontFamily=JetBrains Mono;fillColor=#fff2cc;strokeColor=#d6b656;" vertex="1" parent="1">
                    <mxGeometry x="160" y="120" width="240" height="50" as="geometry"/>
                </mxCell>
                <mxCell id="11" style="edgeStyle=none;html=1;exitX=0.5;exitY=1;exitDx=0;exitDy=0;fontFamily=JetBrains Mono;fontSize=14;" edge="1" parent="1" source="9">
                    <mxGeometry relative="1" as="geometry">
                        <mxPoint x="280.28571428571445" y="320" as="targetPoint"/>
                    </mxGeometry>
                </mxCell>
                <mxCell id="9" value="&lt;font style=&quot;font-size: 14px;&quot;&gt;Нажатие пользователем &lt;br style=&quot;font-size: 14px;&quot;&gt;кнопки Sign in&lt;/font&gt;" style="shape=step;perimeter=stepPerimeter;whiteSpace=wrap;html=1;fixedSize=1;strokeWidth=1;fontFamily=JetBrains Mono;fontSize=14;fillColor=#d5e8d4;strokeColor=#82b366;" vertex="1" parent="1">
                    <mxGeometry x="160" y="220" width="240" height="40" as="geometry"/>
                </mxCell>
                <mxCell id="16" style="edgeStyle=none;html=1;exitX=0.5;exitY=1;exitDx=0;exitDy=0;fontFamily=JetBrains Mono;fontSize=14;" edge="1" parent="1" source="15">
                    <mxGeometry relative="1" as="geometry">
                        <mxPoint x="280.1935483870968" y="440" as="targetPoint"/>
                    </mxGeometry>
                </mxCell>
                <mxCell id="15" value="Скрытие окна входа в &lt;br&gt;учётную запись" style="rounded=1;whiteSpace=wrap;html=1;strokeWidth=1;fontSize=14;arcSize=22;fontFamily=JetBrains Mono;fillColor=#fff2cc;strokeColor=#d6b656;" vertex="1" parent="1">
                    <mxGeometry x="160" y="320" width="240" height="50" as="geometry"/>
                </mxCell>
                <mxCell id="20" style="edgeStyle=none;html=1;exitX=0.5;exitY=1;exitDx=0;exitDy=0;entryX=0.581;entryY=-0.064;entryDx=0;entryDy=0;entryPerimeter=0;fontFamily=JetBrains Mono;fontSize=14;" edge="1" parent="1" source="17" target="19">
                    <mxGeometry relative="1" as="geometry"/>
                </mxCell>
                <mxCell id="17" value="Переход на главную страницу магазина, отображение товаров" style="rounded=1;whiteSpace=wrap;html=1;strokeWidth=1;fontSize=14;arcSize=22;fontFamily=JetBrains Mono;fillColor=#fff2cc;strokeColor=#d6b656;" vertex="1" parent="1">
                    <mxGeometry x="160" y="440" width="240" height="50" as="geometry"/>
                </mxCell>
                <mxCell id="19" value="" style="shape=waypoint;sketch=0;size=6;pointerEvents=1;points=[];fillColor=none;resizable=0;rotatable=0;perimeter=centerPerimeter;snapToPoint=1;strokeWidth=12;" vertex="1" parent="1">
                    <mxGeometry x="270" y="520" width="20" height="20" as="geometry"/>
                </mxCell>
            </root>
        </mxGraphModel>
    </diagram>
</mxfile>